<svg xmlns="http://www.w3.org/2000/svg" viewBox="0 0 422.56 210.32"><defs><style>.cls-1{fill:#fff;}</style></defs><title>Asset 1</title><g id="Layer_2" data-name="Layer 2"><g id="Layer_1-2" data-name="Layer 1"><path class="cls-1" d="M46.46,146.35q-4.64-3.2-9.15-6.06l-5.58,5.59c2.91,2,5.87,4.12,8.88,6.33Z"/><path class="cls-1" d="M96.73,173A133.1,133.1,0,0,1,72,162.42l-6.6,6.6a145.45,145.45,0,0,0,22.64,11.27c12.87,4.87,22.4,5,26.86.41a10.76,10.76,0,0,0,2.86-5.39c-5.89.94-13,.08-21-2.29"/><path class="cls-1" d="M117.34,75.46A218,218,0,0,0,88.43,58.3a206.23,206.23,0,0,0,16.86,29.22Z"/><path class="cls-1" d="M167.18,102A130.93,130.93,0,0,1,142.8,91.51L127,107.44a143.75,143.75,0,0,0,22.33,11.17c12.79,4.87,22.25,5,26.67.4,2.95-2.88,3.93-7.9,2.95-14.55A64.68,64.68,0,0,1,167.18,102"/><path class="cls-1" d="M59.91,61.23a63.84,63.84,0,0,1-3.46-12.37c-6.57-.16-11.76,1.42-15.15,4.85a15.54,15.54,0,0,0-3.87,6.62C42.78,60,49.36,61.4,56.83,64.2c1.67.63,3.4,1.35,5.16,2.13q-1.14-2.62-2.07-5.09"/><path class="cls-1" d="M113,9.74C99.29,5.67,88.85,6.38,83.24,12.05,79.55,15.7,78,21.38,78.41,28.63a69,69,0,0,1,11,3.21C99.62,35.69,111.57,42.23,124.51,51l24.17-24.17C135.6,18.67,123.4,12.84,113,9.74"/><path class="cls-1" d="M87.74,108.47,60.43,135.79,0,196.21q5.76,3.69,11.76,8,4.52,3.22,8.93,6.13l61.08-61.08,20-20c-4-6.6-8.75-13.55-14.09-20.72"/><path class="cls-1" d="M116.58,153c-5-13.15-14.41-29.26-27.38-46.62s-22.2-33.2-27-46-5-22.4-.4-26.86L77.21,18.07c-2,6.44-1.28,14.77,1.54,24.32,4.14,14,12.93,30.72,25.45,48.51s21.14,34.29,25.18,47.91,3.35,24.11-2.32,29.73L120,175.62c1.33-5.82,0-13.56-3.41-22.59"/><path class="cls-1" d="M190.69,40.33,213.62,17.4,196.22,0l-19,19a243.7,243.7,0,0,1,13.45,21.36"/><path class="cls-1" d="M149.27,46.94,106.39,89.83a244,244,0,0,1,13.47,21.33l43.48-43.49c-4-6.6-8.74-13.55-14.07-20.73"/><path class="cls-1" d="M178,91.34c3.38,9,4.75,16.76,3.41,22.59L197.8,97.55c5.68-5.61,6.39-16.07,2.32-29.72s-12.74-30.24-25.17-47.91c-1.27-1.8-2.48-3.59-3.67-5.37L146.61,39.21c1.3,1.82,2.63,3.66,4,5.51C163.59,62.08,173,78.19,178,91.34"/><path class="cls-1" d="M36.84,84.05C34,74.5,33.32,66.17,35.29,59.74l-6.13,6.13c-4.58,4.45-4.47,14,.41,26.86,3.86,10.24,10.6,22.5,19.71,35.79l6.16-6.17c-8.9-14-15.26-27.05-18.6-38.3"/><path class="cls-1" d="M31.47,206.32a3.94,3.94,0,1,1,3.94,3.94,3.94,3.94,0,0,1-3.94-3.94m.46,0a3.47,3.47,0,1,0,3.48-3.51,3.49,3.49,0,0,0-3.48,3.51m3.62.35h-.87v1.82H34v-4.35h1.6c1.07,0,1.56.49,1.56,1.27a1.16,1.16,0,0,1-.86,1.17l.92,1.92h-.78Zm-.87-1.9v1.3h.85c.56,0,.89-.17.89-.67s-.32-.63-.87-.63Z"/><path class="cls-1" d="M385.39,161.84l7.49-21.68H393l7.31,21.68Zm-21.25,24.35H377l4.9-14.2h21.68l4.73,14.2h14.2L400,122.27H386.68Zm-32.26-33.47V134h9.55c8.78,0,12,3.36,12,9.29,0,6.11-3.27,9.46-12,9.46Zm-13.94,33.47h13.94V163.56h9c12.73,0,26.16-3.53,26.16-20.65,0-16.78-12.39-20.39-26-20.39H317.94Zm-45.17-24.35,7.49-21.68h.17l7.31,21.68Zm-21.25,24.35h12.91l4.9-14.2H291l4.73,14.2h14.2l-22.54-63.92H274.06Zm-40.09-24.35,7.48-21.68h.17l7.31,21.68Zm-21.25,24.35h12.9L208,172h21.68l4.73,14.2h14.2l-22.54-63.92H212.72Z"/></g></g></svg>